<svg viewBox="0 0 450 313" role="img" aria-label="Grid diagram" style="width:100%;height:auto;display:block;background:#f8f9fa;border:1px solid #e0e4e9;border-radius:8px" xmlns="http://www.w3.org/2000/svg"><rect x="34.7646484375" y="38.0" width="380.626953125" height="340" rx="16.880859375" stroke="#e0e4e9" stroke-width="5.626953125" fill="none"/><rect x="37.578125" y="40.8" width="375" height="340" rx="14.0673828125" fill="#fff"/><rect x="53.6" y="57.7" width="343" height="39.4" rx="2.110107421875" fill="#e5e9f2" stroke="#99a8cc" stroke-opacity="0.5" stroke-width="0.70"/><rect x="53.6" y="108.3" width="343" height="39.4" rx="2.110107421875" fill="#e5e9f2" stroke="#99a8cc" stroke-opacity="0.5" stroke-width="0.70"/><rect x="53.6" y="159.0" width="343" height="39.4" rx="2.110107421875" fill="#e5e9f2" stroke="#99a8cc" stroke-opacity="0.5" stroke-width="0.70"/><rect x="36.3" y="12.7" width="18.7" height="14.1" rx="2.8" fill="#00267f"/><text x="45.6" y="23.0" text-anchor="middle" font-family="system-ui,sans-serif" font-size="9.1" fill="#fff">16</text><path d="M37.6 32.4v5.6M37.6 35.2H53.6M53.6 32.4v5.6" stroke="#00267f" stroke-width="0.70" fill="none"/><rect x="395.3" y="12.7" width="18.7" height="14.1" rx="2.8" fill="#00267f"/><text x="404.6" y="23.0" text-anchor="middle" font-family="system-ui,sans-serif" font-size="9.1" fill="#fff">16</text><path d="M396.6 32.4v5.6M396.6 35.2H412.6M412.6 32.4v5.6" stroke="#00267f" stroke-width="0.70" fill="none"/><path d="M53.6 218.0v5.6M53.6 220.9H396.6M396.6 218.0v5.6" stroke="#00267f" stroke-width="0.70" fill="none"/><rect x="207.2" y="213.8" width="35.7" height="14.1" rx="2.8" fill="#00267f"/><text x="225.1" y="224.1" text-anchor="middle" font-family="system-ui,sans-serif" font-size="9.1" fill="#fff">fluid</text></svg>